<?xml version="1.0" encoding="UTF-8"?>
<!DOCTYPE svg PUBLIC "-//W3C//DTD SVG 1.1//EN" "http://www.w3.org/Graphics/SVG/1.1/DTD/svg11.dtd">
<!-- Creator: CorelDRAW -->
<svg xmlns="http://www.w3.org/2000/svg" xml:space="preserve" width="2048px" height="2048px" style="shape-rendering:geometricPrecision; text-rendering:geometricPrecision; image-rendering:optimizeQuality; fill-rule:evenodd; clip-rule:evenodd"
viewBox="0 0 2048 2048"
 xmlns:xlink="http://www.w3.org/1999/xlink">
 <defs>
  <style type="text/css">
   <![CDATA[
    .fil1 {fill:none}
    .fil0 {fill:#212121;fill-rule:nonzero}
   ]]>
  </style>
 </defs>
 <g id="Layer_x0020_1">
  <metadata id="CorelCorpID_0Corel-Layer"/>
  <path class="fil0" d="M1392 900c110.453,0 210.454,44.7733 282.84,117.161 72.3875,72.3863 117.161,172.388 117.161,282.84 0,110.453 -44.7733,210.454 -117.161,282.84 -72.3863,72.3875 -172.387,117.161 -282.84,117.161 -110.452,0 -210.454,-44.7733 -282.84,-117.161 -72.3875,-72.3863 -117.161,-172.387 -117.161,-282.84 0,-110.452 44.7733,-210.454 117.161,-282.84 72.3863,-72.3875 172.388,-117.161 282.84,-117.161zm237.59 162.411c-60.8008,-60.802 -144.802,-98.4095 -237.59,-98.4095 -92.7863,0 -176.789,37.6075 -237.59,98.4095 -60.802,60.8008 -98.4095,144.803 -98.4095,237.59 0,92.7875 37.6075,176.789 98.4095,237.59 60.8008,60.802 144.803,98.4095 237.59,98.4095 92.7875,0 176.789,-37.6075 237.59,-98.4095 60.802,-60.8008 98.4095,-144.802 98.4095,-237.59 0,-92.7863 -37.6075,-176.789 -98.4095,-237.59z"/>
  <path class="fil0" d="M1525.78 1198.17l-86.4072 13.7138c-4.28268,-11.0185 -8.24528,-18.6284 -11.7331,-22.9099 -3.48898,-4.28032 -9.19607,-8.56064 -17.2819,-12.9213l0 67.1445c47.0882,12.5256 78.4796,25.7646 94.3347,39.7158 20.8488,18.7087 31.3134,42.4914 31.3134,71.3457 0,16.8071 -3.7252,32.3445 -11.2571,46.454 -7.53071,14.0327 -17.1225,25.8437 -28.7752,35.2784 -11.7319,9.43229 -24.1795,16.2508 -37.3382,20.5311 -13.1599,4.28032 -29.2512,6.81733 -48.2776,7.53071l0 43.9181 -33.9284 0 0 -43.9181c-22.7516,-1.98189 -41.2229,-5.62914 -55.3335,-11.0185 -14.1898,-5.31142 -26.3977,-12.6839 -36.704,-22.1977 -10.3051,-9.43229 -18.2327,-19.5791 -23.8606,-30.5197 -5.54882,-10.9394 -9.75119,-24.0992 -12.5256,-39.5575l93.8599 -10.9394c2.77441,15.2988 6.49961,26.3977 11.2571,33.2162 4.67717,6.81615 12.5244,12.8421 23.3067,18.0732l0 -81.9686c-31.2343,-8.64095 -53.4307,-16.1717 -66.5115,-22.5142 -13.0795,-6.34134 -24.4158,-16.4882 -34.0075,-30.5197 -9.59292,-14.0315 -14.4272,-31.0748 -14.4272,-51.2103 0,-27.587 9.67087,-50.5772 28.9347,-69.1264 19.2626,-18.4701 47.9599,-28.7764 86.0115,-30.7583l0 -22.9902 33.9284 0 0 22.9902c34.7209,2.14016 61.1989,10.3854 79.5107,24.6543 18.3921,14.1898 30.3626,33.691 35.9114,58.5036zm-149.351 -23.2264c-9.91064,3.24922 -16.8071,7.29331 -20.6114,12.0484 -3.88465,4.83544 -5.86654,10.4646 -5.86654,16.9654 0,6.81615 1.98189,12.763 5.94567,17.7567 3.96378,5.07402 10.7811,9.2752 20.5323,12.6827l0 -59.4532zm33.9284 228.545c13.1599,-2.93386 22.8307,-7.7693 28.9347,-14.5075 6.10394,-6.73701 9.19607,-14.348 9.19607,-22.6725 0,-7.29213 -2.61614,-13.9524 -7.84843,-20.1354 -5.15315,-6.10276 -15.2209,-11.7319 -30.2823,-17.0433l0 74.3587z"/>
  <path class="fil0" d="M1073.15 1460.03c12.287,-12.6331 12.0071,-32.8382 -0.625985,-45.1252 -12.6331,-12.287 -32.8382,-12.0071 -45.1252,0.625985 -40.0559,41.2772 -85.7386,87.13 -132.196,133.611 -143.663,-143.752 -285.557,-287.414 -391.949,-429.272 -109.949,-146.6 -183.249,-292.32 -183.249,-436.275 0,-74.9611 30.4193,-142.862 79.578,-192.021 49.1599,-49.1587 117.06,-79.578 192.021,-79.578 68.269,0 118.887,16.6004 160.387,49.7989 43.2981,34.637 78.7241,88.1717 114.712,160.148l28.5 -14.25 -28.6217 14.3114c7.90394,15.8067 27.1264,22.2142 42.9331,14.3102 7.37363,-3.6874 12.7016,-9.83741 15.4854,-16.9547 35.5441,-70.676 70.6394,-123.345 113.415,-157.565 41.4992,-33.1985 92.119,-49.7989 160.389,-49.7989 74.9611,0 142.862,30.4193 192.021,79.578 49.1587,49.1599 79.578,117.06 79.578,192.021 0,38.9599 -5.37048,78.0095 -15.3709,117.131 -10.1705,39.7831 -25.0382,79.5367 -43.852,119.257 -7.52481,15.9473 -0.696851,34.976 15.2504,42.5008 15.9473,7.52481 34.976,0.696851 42.5008,-15.2504 20.6575,-43.6146 36.9674,-87.2044 48.1016,-130.756 11.302,-44.2146 17.3717,-88.5072 17.3717,-132.882 0,-92.6268 -37.5874,-176.529 -98.3292,-237.272 -60.743,-60.7418 -144.645,-98.3292 -237.272,-98.3292 -83.5312,0 -146.765,21.3508 -200.14,64.05 -39.3992,31.5189 -72.3213,74.1615 -103.461,128.123 -31.1398,-53.9611 -64.0607,-96.6036 -103.461,-128.123 -53.3752,-42.6992 -116.608,-64.05 -200.138,-64.05 -92.6268,0 -176.529,37.5874 -237.272,98.3292 -60.7418,60.743 -98.3292,144.645 -98.3292,237.272 0,159.641 78.502,317.525 196.251,474.526 115.677,154.238 267.905,306.481 420.144,458.72l0.177165 0.18189c12.4961,12.4961 32.7591,12.4961 45.2552,0l-0.00236221 -0.00236221 0.119291 -0.119291c50.2359,-50.2359 100.48,-100.48 155.203,-156.872z"/>
 </g>
 <rect class="fil1" width="2048" height="2048"/>
</svg>
